M48
;Layer_Color=9474304
;FILE_FORMAT=4:4
METRIC,LZ
;TYPE=PLATED
T1F00S00C0.6000
T2F00S00C0.8000
T4F00S00C1.0000
T6F00S00C1.2000
T7F00S00C2.0000
T8F00S00C2.5000
%
T01
X00404Y0053959
Y0055959
X00404Y0059809
Y0061809
X01334Y01116173
Y01129127
Y01141827
X00929Y01631173
Y01643873
Y01656827
X01629Y01781
X01649
T02
X009104Y00352
X01012
X010085Y00457
X009335
X010165Y006782
Y007798
X004265Y00499
X003249
X013322Y01182
X014338
X015282Y01029
X016298
X0164Y015524
X01249Y015798
X01214
Y014782
X01249
X013332Y01214
X014348
X011748Y01454
X010732
X0079345Y016565
X0089505
X0164Y01654
T04
X004815Y00354
X005065
X005315
X005565
X00689
X00714
X00739
X00879Y00279
X00904
X00929
X01679Y00554
Y00579
Y00604
Y00629
Y00654
Y00679
Y00704
Y00729
Y00754
Y00779
X01579Y00779
Y00729
Y00704
Y00679
Y00654
Y00629
Y00604
Y00579
Y00554
Y00529
Y00504
X0109575Y006035
Y006285
Y006535
Y006785
Y007035
Y007285
Y007535
Y007785
X010165Y00654
X009705Y0065425
X0097075Y0059
X010165Y0058925
X00534Y006171
Y005409
X003465Y0053959
X0034523Y005688
Y0059801
X003533Y00405
X003787
X0109575Y008285
Y008535
Y008785
Y009035
Y009285
Y009535
X01017016Y01084
Y01134
Y01184
X00947516Y0118375
Y0113375
Y0108375
X0128425Y010895
X01284Y01159
X014093Y01133
X014347
X01579Y00954
Y00929
Y00904
Y00879
Y00854
Y00829
Y00804
X01679Y00804
Y00829
Y00854
Y00879
Y00904
Y00929
X0163225Y009045
X01632Y00974
X01579Y01354
Y01379
Y01404
Y01429
Y01454
Y01479
Y01504
Y01529
Y01554
Y01579
X01294
Y01554
Y01529
Y01504
Y01479
Y01454
Y01429
Y01404
Y01379
Y01354
X01174Y01534
X01074Y01484
X010045Y0148375
X01017016Y01234
X00947516Y0123375
X007936Y01714
X00729Y01764
X00679
X00489Y01639
X00414Y01689
X00819Y01714
X00929Y01764
X00979
X0117375Y016035
X01294Y01604
Y01629
Y01654
Y01679
Y01704
X01579
Y01679
Y01654
Y01629
Y01604
X01605215Y01688387
X01605965Y01734137
X01670215Y01734387
X01669965Y01688387
T06
X0165146Y003778
X0167686Y0043241
X0162606
X011025Y01069125
Y01188875
X012245Y01189125
X012455Y01129125
X0122525Y01068875
X01099125Y015435
X01039125Y015225
X00978875Y0154275
X00979125Y016655
X01098875
T07
X00304Y01029
X00904Y01029
Y01279
X00304Y01279
T08
X00329Y00329
X01629
X01638Y01494
X01079Y01254
X00329Y01779
M30
